<svg width="120" height="40" viewBox="0 0 120 40" fill="none" xmlns="http://www.w3.org/2000/svg">
  <!-- Logo Icon -->
  <g transform="translate(0, 4)">
    <circle cx="20" cy="16" r="16" fill="url(#gradient)" />
    
    <!-- Letter S -->
    <path d="M16 10C16 10 18 10 20 10C22 10 24 10.5 24 12C24 13.5 22 14 20 14C18 14 16 14 16 14" 
          stroke="white" stroke-width="2" stroke-linecap="round" fill="none" />
    <path d="M16 18C16 18 18 18 20 18C22 18 24 18.5 24 20C24 21.5 22 22 20 22C18 22 16 22 16 22" 
          stroke="white" stroke-width="2" stroke-linecap="round" fill="none" />
    
    <!-- Letter P -->
    <path d="M26 10V22" stroke="white" stroke-width="2" stroke-linecap="round" />
    <path d="M26 10C26 10 28 10 30 10C32 10 32 12 32 14C32 16 30 16 28 16C26 16 26 16 26 16" 
          stroke="white" stroke-width="2" stroke-linecap="round" fill="none" />
  </g>
  
  <!-- Text "SisPAC" -->
  <text x="50" y="24" font-family="system-ui, -apple-system, sans-serif" font-size="20" font-weight="700" fill="currentColor">
    SisPAC
  </text>
  
  <!-- Subtitle -->
  <text x="50" y="36" font-family="system-ui, -apple-system, sans-serif" font-size="10" font-weight="400" fill="rgb(107 114 128)">
    Sistema de Avaliação Comportamental
  </text>
  
  <!-- Gradient Definition -->
  <defs>
    <linearGradient id="gradient" x1="0%" y1="0%" x2="100%" y2="100%">
      <stop offset="0%" style="stop-color:#3b82f6;stop-opacity:1" />
      <stop offset="100%" style="stop-color:#1d4ed8;stop-opacity:1" />
    </linearGradient>
  </defs>
</svg>
