<svg width="32" height="32" viewBox="0 0 32 32" fill="none" xmlns="http://www.w3.org/2000/svg">
  <!-- Background Circle -->
  <circle cx="16" cy="16" r="16" fill="url(#gradient)" />
  
  <!-- Letter S -->
  <path d="M12 10C12 10 14 10 16 10C18 10 20 10.5 20 12C20 13.5 18 14 16 14C14 14 12 14 12 14" 
        stroke="white" stroke-width="2" stroke-linecap="round" fill="none" />
  <path d="M12 18C12 18 14 18 16 18C18 18 20 18.5 20 20C20 21.5 18 22 16 22C14 22 12 22 12 22" 
        stroke="white" stroke-width="2" stroke-linecap="round" fill="none" />
  
  <!-- Letter P -->
  <path d="M22 10V22" stroke="white" stroke-width="2" stroke-linecap="round" />
  <path d="M22 10C22 10 24 10 26 10C28 10 28 12 28 14C28 16 26 16 24 16C22 16 22 16 22 16" 
        stroke="white" stroke-width="2" stroke-linecap="round" fill="none" />
  
  <!-- Gradient Definition -->
  <defs>
    <linearGradient id="gradient" x1="0%" y1="0%" x2="100%" y2="100%">
      <stop offset="0%" style="stop-color:#3b82f6;stop-opacity:1" />
      <stop offset="100%" style="stop-color:#1d4ed8;stop-opacity:1" />
    </linearGradient>
  </defs>
</svg>
